<?xml version="1.0" encoding="utf-8"?>
<!-- Generator: Adobe Illustrator 17.0.0, SVG Export Plug-In . SVG Version: 6.00 Build 0)  -->
<!DOCTYPE svg PUBLIC "-//W3C//DTD SVG 1.1//EN" "http://www.w3.org/Graphics/SVG/1.1/DTD/svg11.dtd">
<svg version="1.1" id="Layer_1" xmlns="http://www.w3.org/2000/svg" xmlns:xlink="http://www.w3.org/1999/xlink" x="0px" y="0px"
	 width="81.884px" height="106.896px" viewBox="0 0 81.884 106.896" enable-background="new 0 0 81.884 106.896"
	 xml:space="preserve">
<path fill="#4E6985" d="M34.667,74.706h42.647l2.671,11.814c1.039,4.65,1.669,7.723,1.9,9.274V0h-10.46L18.459,86.309
	c-2.769,4.49-4.393,7.163-4.869,8.021c-1.576,2.867-2.855,4.573-3.832,5.123c-0.98,0.549-3.38,0.943-7.198,1.182l-1.361,0.072
	L0,106.896h29.16l1.264-6.19h-1.361c-5.396,0-8.093-0.835-8.093-2.508c0-1.145,2.124-5.109,6.375-11.891L34.667,74.706z
	 M65.84,23.59l9.888,43.81H38.827L65.84,23.59z"/>
<path fill="#4E6985" d="M80.377,100.061c-1.074,0.429-3.856,0.645-8.344,0.645h-1.361l-1.265,6.19h12.477v-9.047
	C81.695,98.977,81.206,99.73,80.377,100.061z"/>
</svg>
