<?xml version="1.0" encoding="utf-8"?>
<!-- Generator: Adobe Illustrator 17.0.0, SVG Export Plug-In . SVG Version: 6.00 Build 0)  -->
<!DOCTYPE svg PUBLIC "-//W3C//DTD SVG 1.1//EN" "http://www.w3.org/Graphics/SVG/1.1/DTD/svg11.dtd">
<svg version="1.1" id="Layer_1" xmlns="http://www.w3.org/2000/svg" xmlns:xlink="http://www.w3.org/1999/xlink" x="0px" y="0px"
	 width="142.193px" height="42.764px" viewBox="0 0 142.193 42.764" enable-background="new 0 0 142.193 42.764"
	 xml:space="preserve">
<g>
	<path fill="#FFA400" d="M34.168,42.764l0.547-2.535h0.568c1.874,0,3.036-0.085,3.485-0.255c0.377-0.142,0.594-0.474,0.654-0.99
		V38.45c-0.071-0.545-0.343-1.819-0.818-3.827l-1.115-4.668H19.678l-3.058,4.584c-1.775,2.68-2.662,4.246-2.662,4.699
		c0,0.661,1.126,0.99,3.38,0.99h0.568l-0.548,2.535H34.168z"/>
	<polygon fill="#FFA400" points="21.415,27.182 36.828,27.182 32.697,9.871 	"/>
	<path fill="#FFA400" d="M5.7,40.229L6.268,40.2c1.595-0.094,2.597-0.25,3.006-0.467c0.409-0.217,0.943-0.892,1.601-2.024
		c0.199-0.34,0.877-1.396,2.034-3.17L35.03,0.437h4.393V0H0v42.764h5.181L5.7,40.229z"/>
</g>
<g>
	<g>
		<path fill="#FFFFFF" d="M58.424,16.467l-5.622,0.096l-0.417,1.151c-0.042,0.112-0.095,0.252-0.158,0.42
			c-0.063,0.168-0.135,0.346-0.215,0.534c-0.08,0.188-0.16,0.372-0.24,0.552c-0.08,0.18-0.149,0.342-0.208,0.486l1.844-0.072v1.96
			h-5.546v-1.685c0.362,0,0.667-0.078,0.916-0.233c0.248-0.155,0.465-0.36,0.65-0.615s0.35-0.552,0.493-0.891
			c0.143-0.338,0.286-0.691,0.43-1.058l5.053-13.087h1.793l5.521,13.338c0.05,0.12,0.111,0.279,0.183,0.478
			c0.071,0.199,0.145,0.413,0.221,0.64c0.076,0.227,0.143,0.454,0.202,0.681c0.059,0.227,0.101,0.432,0.126,0.615l1.491-0.071v1.888
			h-6.973v-1.613c0.463,0,0.787-0.086,0.973-0.258c0.185-0.172,0.278-0.406,0.278-0.702c0-0.168-0.025-0.354-0.076-0.558
			c-0.051-0.204-0.118-0.422-0.202-0.654L58.424,16.467z M53.459,14.746h4.308l-1.175-3.071c-0.228-0.598-0.43-1.189-0.606-1.775
			c-0.177-0.586-0.308-1.105-0.392-1.56h-0.025c-0.067,0.279-0.173,0.693-0.316,1.243s-0.354,1.211-0.631,1.984L53.459,14.746z"/>
		<path fill="#FFFFFF" d="M71.17,11.304l0.038,6.311c0,0.12-0.002,0.265-0.006,0.436c-0.004,0.172-0.011,0.357-0.019,0.556
			s-0.019,0.402-0.031,0.609c-0.013,0.208-0.028,0.402-0.044,0.585l1.806-0.071v1.864h-6.91v-1.589c0.362,0,0.646-0.052,0.853-0.156
			c0.207-0.104,0.36-0.251,0.461-0.442c0.101-0.191,0.165-0.42,0.19-0.688c0.025-0.267,0.038-0.563,0.038-0.89v-6.466l-1.87,0.036
			V9.356h1.87V8.638c0-0.988,0.118-1.83,0.354-2.527c0.235-0.697,0.575-1.267,1.017-1.709c0.442-0.442,0.977-0.767,1.604-0.974
			c0.627-0.207,1.329-0.311,2.104-0.311c0.606,0,1.12,0.064,1.541,0.191s0.762,0.294,1.023,0.502
			c0.261,0.207,0.448,0.438,0.562,0.693c0.113,0.255,0.17,0.51,0.17,0.765c0,0.223-0.036,0.434-0.107,0.633
			s-0.179,0.375-0.322,0.526c-0.143,0.151-0.319,0.271-0.53,0.358c-0.211,0.088-0.455,0.132-0.732,0.132
			c-0.48,0-0.853-0.131-1.118-0.392c-0.266-0.262-0.398-0.598-0.398-1.01c0-0.135,0.021-0.293,0.063-0.476
			c-0.084-0.087-0.185-0.142-0.304-0.166c-0.117-0.024-0.21-0.036-0.277-0.036c-0.219,0.008-0.396,0.06-0.531,0.155
			c-0.135,0.096-0.24,0.215-0.315,0.358c-0.076,0.143-0.129,0.302-0.158,0.477s-0.044,0.35-0.044,0.524l0.013,3.004h2.893v1.889
			L71.17,11.304z"/>
		<path fill="#FFFFFF" d="M80.708,11.304l0.038,6.311c0,0.12-0.002,0.265-0.006,0.436c-0.005,0.172-0.011,0.357-0.02,0.556
			s-0.019,0.402-0.031,0.609c-0.013,0.208-0.027,0.402-0.044,0.585l1.806-0.071v1.864h-6.91v-1.589c0.362,0,0.646-0.052,0.854-0.156
			c0.206-0.104,0.359-0.251,0.461-0.442c0.101-0.191,0.164-0.42,0.189-0.688c0.025-0.267,0.038-0.563,0.038-0.89v-6.466l-1.87,0.036
			V9.356h1.87V8.638c0-0.988,0.117-1.83,0.354-2.527c0.235-0.697,0.574-1.267,1.017-1.709c0.442-0.442,0.977-0.767,1.604-0.974
			c0.627-0.207,1.328-0.311,2.104-0.311c0.606,0,1.12,0.064,1.541,0.191s0.762,0.294,1.023,0.502
			c0.261,0.207,0.448,0.438,0.562,0.693c0.113,0.255,0.17,0.51,0.17,0.765c0,0.223-0.036,0.434-0.107,0.633
			s-0.179,0.375-0.322,0.526c-0.143,0.151-0.319,0.271-0.53,0.358c-0.211,0.088-0.455,0.132-0.732,0.132
			c-0.48,0-0.853-0.131-1.118-0.392c-0.266-0.262-0.398-0.598-0.398-1.01c0-0.135,0.021-0.293,0.063-0.476
			c-0.084-0.087-0.186-0.142-0.303-0.166c-0.118-0.024-0.211-0.036-0.278-0.036c-0.219,0.008-0.396,0.06-0.53,0.155
			c-0.135,0.096-0.24,0.215-0.316,0.358c-0.075,0.143-0.128,0.302-0.157,0.477c-0.03,0.175-0.045,0.35-0.045,0.524l0.013,3.004
			h2.894v1.889L80.708,11.304z"/>
		<path fill="#FFFFFF" d="M90.22,17.662c0,0.12-0.002,0.263-0.006,0.43c-0.005,0.167-0.011,0.347-0.02,0.538
			c-0.008,0.191-0.019,0.388-0.031,0.591s-0.027,0.396-0.044,0.58l1.68-0.071v1.864h-6.783v-1.589c0.361,0,0.646-0.052,0.853-0.156
			c0.206-0.104,0.36-0.251,0.461-0.442c0.102-0.191,0.164-0.42,0.189-0.688c0.025-0.267,0.038-0.563,0.038-0.89v-4.064
			c0-0.294,0.006-0.633,0.019-1.016c0.013-0.383,0.04-0.757,0.082-1.124l-1.818,0.072V9.858c0.598,0,1.126-0.024,1.585-0.073
			s0.851-0.109,1.175-0.182s0.585-0.152,0.783-0.237c0.198-0.085,0.343-0.168,0.436-0.249h1.402V17.662z M90.599,4.945
			c0,0.279-0.046,0.538-0.139,0.777s-0.221,0.45-0.385,0.633c-0.165,0.184-0.367,0.327-0.606,0.43
			c-0.24,0.104-0.504,0.156-0.79,0.156c-0.295,0-0.566-0.052-0.814-0.156c-0.249-0.103-0.461-0.247-0.638-0.43
			c-0.178-0.183-0.314-0.394-0.411-0.633S86.67,5.224,86.67,4.945s0.053-0.542,0.158-0.789c0.105-0.247,0.248-0.462,0.43-0.645
			c0.181-0.184,0.39-0.327,0.625-0.431c0.236-0.103,0.488-0.155,0.758-0.155c0.278,0,0.537,0.052,0.777,0.155
			c0.24,0.104,0.448,0.247,0.625,0.431c0.177,0.183,0.313,0.398,0.411,0.645C90.551,4.403,90.599,4.667,90.599,4.945z"/>
		<path fill="#FFFFFF" d="M106.82,17.662c0,0.12-0.002,0.263-0.006,0.43c-0.005,0.167-0.011,0.347-0.02,0.538
			c-0.008,0.191-0.019,0.388-0.031,0.591s-0.027,0.396-0.044,0.58l1.68-0.071v1.864h-6.783v-1.589c0.361,0,0.646-0.052,0.853-0.155
			c0.206-0.104,0.359-0.251,0.461-0.442c0.101-0.191,0.164-0.419,0.189-0.686s0.038-0.563,0.038-0.889l-0.013-3.485
			c-0.009-1.074-0.182-1.862-0.519-2.363c-0.337-0.501-0.863-0.752-1.579-0.752c-0.446,0-0.878,0.087-1.295,0.263
			c-0.416,0.175-0.772,0.386-1.067,0.632v5.538c0,0.119-0.002,0.263-0.006,0.43c-0.005,0.167-0.011,0.346-0.02,0.537
			c-0.008,0.191-0.019,0.388-0.031,0.591c-0.013,0.203-0.027,0.396-0.044,0.579l1.68-0.071v1.864H93.48v-1.589
			c0.361,0,0.646-0.052,0.853-0.156c0.206-0.104,0.36-0.251,0.461-0.442c0.102-0.191,0.164-0.42,0.189-0.688
			c0.025-0.267,0.038-0.563,0.038-0.89v-4.124c0-0.295,0.006-0.624,0.019-0.986c0.013-0.363,0.04-0.727,0.082-1.094l-1.818,0.072
			V9.858c0.598,0,1.126-0.024,1.585-0.073c0.459-0.049,0.851-0.11,1.175-0.183s0.585-0.152,0.783-0.238
			c0.198-0.085,0.343-0.167,0.436-0.247h1.276l0.113,1.207h0.038c0.253-0.183,0.541-0.359,0.865-0.526
			c0.324-0.167,0.657-0.312,0.998-0.437c0.342-0.123,0.674-0.221,0.998-0.292s0.617-0.108,0.878-0.108
			c0.792,0,1.464,0.106,2.016,0.317c0.551,0.211,1.002,0.536,1.352,0.974c0.35,0.438,0.604,1,0.764,1.685
			c0.16,0.686,0.24,1.498,0.24,2.438V17.662z"/>
		<path fill="#FFFFFF" d="M115.145,17.662c0,0.12-0.002,0.263-0.006,0.43c-0.005,0.167-0.011,0.347-0.02,0.538
			c-0.008,0.191-0.019,0.388-0.031,0.591s-0.027,0.396-0.044,0.58l1.68-0.071v1.864h-6.783v-1.589c0.361,0,0.646-0.052,0.853-0.156
			c0.206-0.104,0.36-0.251,0.461-0.442c0.102-0.191,0.164-0.42,0.189-0.688c0.025-0.267,0.038-0.563,0.038-0.89v-4.064
			c0-0.294,0.006-0.633,0.019-1.016c0.013-0.383,0.04-0.757,0.082-1.124l-1.818,0.072V9.858c0.598,0,1.126-0.024,1.585-0.073
			s0.851-0.109,1.175-0.182s0.585-0.152,0.783-0.237c0.198-0.085,0.343-0.168,0.436-0.249h1.402V17.662z M115.524,4.945
			c0,0.279-0.046,0.538-0.139,0.777s-0.221,0.45-0.385,0.633c-0.165,0.184-0.367,0.327-0.606,0.43
			c-0.24,0.104-0.504,0.156-0.79,0.156c-0.295,0-0.566-0.052-0.814-0.156c-0.249-0.103-0.461-0.247-0.638-0.43
			c-0.178-0.183-0.314-0.394-0.411-0.633s-0.146-0.498-0.146-0.777s0.053-0.542,0.158-0.789c0.105-0.247,0.248-0.462,0.43-0.645
			c0.181-0.184,0.39-0.327,0.625-0.431c0.236-0.103,0.488-0.155,0.758-0.155c0.278,0,0.537,0.052,0.777,0.155
			c0.24,0.104,0.448,0.247,0.625,0.431c0.177,0.183,0.313,0.398,0.411,0.645C115.476,4.403,115.524,4.667,115.524,4.945z"/>
		<path fill="#FFFFFF" d="M117.685,9.356c0.446-0.008,0.863-0.113,1.25-0.317c0.388-0.203,0.735-0.456,1.043-0.759
			c0.307-0.303,0.568-0.633,0.783-0.992c0.215-0.359,0.372-0.693,0.474-1.004h1.907l-0.013,3.072h3.298v1.889l-3.298,0.06
			c-0.008,1.157-0.015,2.117-0.019,2.878c-0.005,0.762-0.009,1.373-0.013,1.832c-0.005,0.458-0.007,0.786-0.007,0.981
			c0,0.195,0,0.309,0,0.341c0,0.287,0.02,0.573,0.058,0.856c0.037,0.283,0.113,0.539,0.228,0.766
			c0.113,0.228,0.273,0.411,0.479,0.55s0.474,0.209,0.803,0.209c0.109,0,0.246-0.016,0.41-0.048c0.164-0.032,0.35-0.098,0.556-0.199
			c0.206-0.1,0.428-0.249,0.663-0.446c0.236-0.197,0.476-0.459,0.721-0.789l1.25,1.1c-0.472,0.653-0.943,1.159-1.415,1.518
			c-0.472,0.359-0.922,0.622-1.352,0.789s-0.821,0.267-1.175,0.299c-0.354,0.032-0.648,0.048-0.884,0.048
			c-0.287,0-0.584-0.022-0.891-0.066c-0.308-0.044-0.611-0.125-0.91-0.245c-0.299-0.119-0.581-0.289-0.846-0.508
			c-0.266-0.219-0.502-0.504-0.708-0.854s-0.368-0.775-0.486-1.273s-0.177-1.085-0.177-1.763l0.038-5.904l-1.769,0.024V9.356z"/>
		<path fill="#FFFFFF" d="M136.243,18.319c0.076-0.207,0.168-0.478,0.278-0.812c0.109-0.335,0.233-0.715,0.372-1.142
			c0.14-0.426,0.291-0.888,0.455-1.386s0.339-1.014,0.524-1.548c0.05-0.151,0.113-0.329,0.189-0.532
			c0.075-0.203,0.162-0.413,0.259-0.627c0.097-0.215,0.2-0.422,0.31-0.622s0.223-0.367,0.341-0.502v-0.024l-1.478,0.096V9.356h4.598
			v1.566c-0.539,0.127-0.983,0.44-1.332,0.938c-0.35,0.498-0.659,1.118-0.929,1.858l-3.247,8.737
			c-0.362,0.996-0.707,1.858-1.035,2.588c-0.329,0.729-0.675,1.328-1.036,1.799c-0.362,0.47-0.763,0.818-1.2,1.046
			c-0.438,0.227-0.947,0.34-1.528,0.34c-0.337,0-0.649-0.047-0.936-0.143s-0.534-0.231-0.745-0.406
			c-0.211-0.176-0.377-0.387-0.499-0.634s-0.183-0.522-0.183-0.825c0-0.223,0.042-0.436,0.126-0.639s0.2-0.383,0.348-0.538
			c0.146-0.155,0.324-0.279,0.53-0.371c0.206-0.091,0.432-0.137,0.676-0.137c0.177,0,0.346,0.033,0.505,0.102
			c0.16,0.067,0.302,0.161,0.424,0.28c0.122,0.12,0.219,0.264,0.29,0.431c0.072,0.167,0.107,0.351,0.107,0.55
			c0,0.104-0.013,0.215-0.038,0.335v0.023c0.178,0,0.362-0.113,0.557-0.341c0.193-0.227,0.389-0.525,0.587-0.896
			c0.198-0.37,0.388-0.797,0.568-1.278c0.182-0.482,0.348-0.982,0.499-1.5l-4.105-7.757c-0.244-0.454-0.442-0.849-0.594-1.183
			c-0.151-0.335-0.271-0.627-0.36-0.878c-0.088-0.251-0.151-0.476-0.189-0.675c-0.037-0.199-0.069-0.391-0.095-0.574l-1.188,0.048
			V9.356h6.443v1.566c-0.404,0.048-0.687,0.159-0.847,0.334s-0.24,0.382-0.24,0.622c0,0.151,0.025,0.309,0.076,0.472
			c0.051,0.163,0.113,0.325,0.189,0.484l2.526,5.486H136.243z"/>
	</g>
</g>
<g>
	<path fill="#B3B2B1" d="M58.192,25.627l-0.909,1.649c-0.256-0.216-0.65-0.43-1.184-0.644c-0.534-0.213-0.992-0.319-1.376-0.319
		c-1.201,0-2.148,0.386-2.843,1.156s-1.042,1.803-1.042,3.097c0,1.23,0.34,2.214,1.021,2.95s1.608,1.104,2.781,1.104
		c0.772,0,1.409-0.2,1.909-0.6v-2.272h-1.692v-1.751h3.86v5.175c-0.517,0.4-1.183,0.712-1.997,0.936
		c-0.814,0.223-1.625,0.335-2.431,0.335c-1.751,0-3.139-0.543-4.165-1.629s-1.539-2.521-1.539-4.304s0.559-3.231,1.676-4.347
		c1.117-1.115,2.621-1.673,4.511-1.673C56.113,24.491,57.252,24.87,58.192,25.627z"/>
	<path fill="#B3B2B1" d="M65.672,29.634c-0.372-0.231-0.781-0.347-1.226-0.347c-0.483,0-0.913,0.208-1.288,0.623
		c-0.375,0.416-0.563,0.923-0.563,1.522v4.812H60.51v-8.449h2.085v0.773c0.583-0.621,1.359-0.932,2.326-0.932
		c0.712,0,1.256,0.103,1.635,0.308L65.672,29.634z"/>
	<path fill="#B3B2B1" d="M67.223,32.002c0-1.289,0.393-2.338,1.18-3.148c0.786-0.81,1.825-1.215,3.114-1.215
		c1.356,0,2.409,0.39,3.161,1.168c0.75,0.778,1.125,1.844,1.125,3.195c0,1.347-0.383,2.417-1.146,3.211s-1.811,1.191-3.14,1.191
		c-1.356,0-2.411-0.401-3.165-1.203C67.599,34.398,67.223,33.332,67.223,32.002z M69.391,32.002c0,1.861,0.709,2.793,2.126,2.793
		c0.65,0,1.165-0.242,1.546-0.727c0.381-0.483,0.572-1.173,0.572-2.066c0-1.836-0.707-2.754-2.118-2.754
		c-0.65,0-1.167,0.242-1.551,0.727C69.582,30.458,69.391,31.133,69.391,32.002z"/>
	<path fill="#B3B2B1" d="M83.224,36.254v-0.71c-0.294,0.236-0.7,0.439-1.217,0.607c-0.518,0.168-0.992,0.253-1.426,0.253
		c-2.074,0-3.11-1.042-3.11-3.125v-5.482h2.084v5.333c0,1.084,0.515,1.625,1.543,1.625c0.473,0,0.912-0.115,1.317-0.347
		c0.406-0.231,0.676-0.5,0.809-0.805v-5.807h2.085v8.457H83.224z"/>
	<path fill="#B3B2B1" d="M89.479,36.033v3.526h-2.085V27.796h2.085v0.568c0.522-0.484,1.164-0.727,1.926-0.727
		c2.847,0,4.27,1.483,4.27,4.45c0,1.383-0.394,2.448-1.18,3.194c-0.787,0.747-1.861,1.121-3.224,1.121
		C90.616,36.404,90.018,36.28,89.479,36.033z M89.479,29.864v4.441c0.378,0.289,0.819,0.434,1.325,0.434
		c0.962,0,1.652-0.217,2.072-0.65c0.42-0.435,0.63-1.119,0.63-2.056c0-0.999-0.209-1.702-0.626-2.11
		c-0.416-0.407-1.105-0.611-2.067-0.611C90.313,29.311,89.868,29.496,89.479,29.864z"/>
</g>
</svg>
