<?xml version="1.0" encoding="utf-8"?>
<!-- Generator: Adobe Illustrator 17.0.0, SVG Export Plug-In . SVG Version: 6.00 Build 0)  -->
<!DOCTYPE svg PUBLIC "-//W3C//DTD SVG 1.1//EN" "http://www.w3.org/Graphics/SVG/1.1/DTD/svg11.dtd">
<svg version="1.1" id="Layer_1" xmlns="http://www.w3.org/2000/svg" xmlns:xlink="http://www.w3.org/1999/xlink" x="0px" y="0px"
	 width="365.812px" height="273.462px" viewBox="0 0 365.812 273.462" enable-background="new 0 0 365.812 273.462"
	 xml:space="preserve">
<g>
	<path fill="#FFFFFF" d="M9.471,250.289c0.075,0.528,0.222,0.924,0.44,1.186c0.401,0.477,1.088,0.715,2.062,0.715
		c0.582,0,1.056-0.062,1.419-0.188c0.689-0.24,1.034-0.688,1.034-1.343c0-0.382-0.169-0.678-0.507-0.888
		c-0.338-0.204-0.873-0.385-1.606-0.542l-1.254-0.274c-1.231-0.272-2.078-0.568-2.538-0.888c-0.78-0.534-1.17-1.369-1.17-2.505
		c0-1.037,0.381-1.898,1.145-2.584c0.763-0.686,1.884-1.029,3.362-1.029c1.235,0,2.289,0.323,3.16,0.971
		c0.872,0.646,1.329,1.585,1.372,2.815h-2.325c-0.043-0.696-0.354-1.191-0.934-1.484c-0.387-0.194-0.867-0.291-1.441-0.291
		c-0.639,0-1.148,0.126-1.529,0.377s-0.572,0.603-0.572,1.053c0,0.413,0.188,0.723,0.564,0.927c0.241,0.136,0.754,0.296,1.537,0.479
		l2.032,0.479c0.89,0.209,1.558,0.489,2.002,0.84c0.689,0.545,1.035,1.333,1.035,2.364c0,1.058-0.409,1.936-1.227,2.635
		s-1.973,1.049-3.465,1.049c-1.524,0-2.723-0.345-3.596-1.033c-0.874-0.688-1.31-1.635-1.31-2.839h2.31
		C9.471,250.291,9.471,250.289,9.471,250.289z"/>
	<path fill="#FFFFFF" d="M21.664,248.655c0.417-0.052,0.715-0.117,0.895-0.196c0.321-0.136,0.482-0.348,0.482-0.636
		c0-0.351-0.123-0.593-0.37-0.727s-0.609-0.2-1.087-0.2c-0.536,0-0.915,0.131-1.138,0.393c-0.16,0.193-0.266,0.455-0.319,0.785
		h-2.159c0.047-0.749,0.258-1.363,0.631-1.846c0.594-0.754,1.614-1.131,3.061-1.131c0.941,0,1.777,0.187,2.508,0.558
		c0.731,0.372,1.097,1.073,1.097,2.104v3.927c0,0.272,0.005,0.603,0.016,0.99c0.016,0.293,0.061,0.492,0.134,0.597
		s0.183,0.191,0.329,0.259v0.33h-2.435c-0.067-0.173-0.115-0.335-0.141-0.487c-0.026-0.151-0.048-0.324-0.063-0.518
		c-0.311,0.335-0.669,0.62-1.074,0.855c-0.484,0.277-1.032,0.416-1.643,0.416c-0.779,0-1.424-0.221-1.932-0.663
		s-0.763-1.069-0.763-1.881c0-1.053,0.409-1.814,1.227-2.285c0.448-0.257,1.107-0.44,1.979-0.55L21.664,248.655z M23.033,249.7
		c-0.144,0.089-0.288,0.161-0.434,0.216c-0.146,0.055-0.347,0.105-0.602,0.153l-0.51,0.094c-0.478,0.084-0.82,0.187-1.028,0.307
		c-0.353,0.204-0.529,0.521-0.529,0.95c0,0.382,0.108,0.658,0.323,0.828c0.216,0.171,0.478,0.256,0.785,0.256
		c0.489,0,0.94-0.142,1.353-0.425c0.412-0.282,0.626-0.798,0.642-1.547C23.033,250.532,23.033,249.7,23.033,249.7z"/>
	<path fill="#FFFFFF" d="M29.505,253.862h-2.238v-11.576h2.238C29.505,242.286,29.505,253.862,29.505,253.862z"/>
	<path fill="#FFFFFF" d="M36.228,245.439c0.403,0.228,0.73,0.543,0.981,0.946v-4.084h2.27v11.561h-2.175v-1.186
		c-0.32,0.508-0.684,0.877-1.092,1.107c-0.408,0.229-0.917,0.345-1.523,0.345c-1,0-1.842-0.404-2.525-1.213
		s-1.024-1.847-1.024-3.114c0-1.46,0.336-2.609,1.009-3.447s1.572-1.257,2.697-1.257C35.363,245.098,35.824,245.212,36.228,245.439z
		 M36.777,251.538c0.33-0.472,0.494-1.081,0.494-1.83c0-1.047-0.264-1.796-0.793-2.246c-0.324-0.272-0.701-0.408-1.131-0.408
		c-0.654,0-1.135,0.247-1.441,0.742c-0.306,0.494-0.459,1.108-0.459,1.841c0,0.791,0.155,1.423,0.467,1.897s0.784,0.71,1.418,0.71
		S36.447,252.009,36.777,251.538z"/>
	<path fill="#FFFFFF" d="M48.651,252.815c-0.723,0.892-1.819,1.338-3.291,1.338c-1.471,0-2.568-0.446-3.29-1.338
		c-0.723-0.893-1.084-1.966-1.084-3.222c0-1.234,0.361-2.304,1.084-3.209c0.722-0.905,1.819-1.357,3.29-1.357
		c1.472,0,2.568,0.452,3.291,1.357s1.084,1.975,1.084,3.209C49.735,250.85,49.374,251.923,48.651,252.815z M46.86,251.578
		c0.351-0.466,0.526-1.127,0.526-1.984s-0.176-1.518-0.526-1.979c-0.351-0.463-0.854-0.694-1.508-0.694s-1.158,0.231-1.512,0.694
		c-0.354,0.462-0.53,1.122-0.53,1.979s0.177,1.519,0.53,1.984c0.354,0.465,0.857,0.698,1.512,0.698S46.51,252.043,46.86,251.578z"/>
	<path fill="#FFFFFF" d="M60.346,245.439c0.403,0.228,0.73,0.543,0.981,0.946v-4.084h2.27v11.561h-2.175v-1.186
		c-0.32,0.508-0.684,0.877-1.092,1.107c-0.408,0.229-0.917,0.345-1.523,0.345c-1,0-1.842-0.404-2.525-1.213
		s-1.024-1.847-1.024-3.114c0-1.46,0.336-2.609,1.009-3.447s1.572-1.257,2.697-1.257C59.481,245.098,59.942,245.212,60.346,245.439z
		 M60.896,251.538c0.33-0.472,0.494-1.081,0.494-1.83c0-1.047-0.264-1.796-0.793-2.246c-0.324-0.272-0.701-0.408-1.131-0.408
		c-0.654,0-1.135,0.247-1.441,0.742c-0.306,0.494-0.459,1.108-0.459,1.841c0,0.791,0.155,1.423,0.467,1.897s0.784,0.71,1.418,0.71
		S60.565,252.009,60.896,251.538z"/>
	<path fill="#FFFFFF" d="M71.209,245.476c0.597,0.268,1.09,0.689,1.479,1.267c0.351,0.508,0.578,1.098,0.683,1.77
		c0.06,0.394,0.085,0.959,0.073,1.698H67.21c0.035,0.859,0.333,1.461,0.896,1.807c0.342,0.215,0.753,0.322,1.233,0.322
		c0.51,0,0.925-0.131,1.243-0.393c0.174-0.142,0.327-0.338,0.461-0.589h2.285c-0.061,0.508-0.337,1.023-0.83,1.547
		c-0.767,0.832-1.84,1.249-3.221,1.249c-1.139,0-2.145-0.352-3.015-1.054c-0.871-0.702-1.307-1.845-1.307-3.427
		c0-1.483,0.393-2.62,1.18-3.411c0.785-0.792,1.806-1.188,3.061-1.188C69.94,245.074,70.611,245.208,71.209,245.476z M67.86,247.409
		c-0.316,0.326-0.516,0.768-0.597,1.325h3.856c-0.041-0.595-0.239-1.045-0.597-1.353c-0.356-0.309-0.799-0.462-1.327-0.462
		C68.622,246.92,68.177,247.083,67.86,247.409z"/>
	<path fill="#FFFFFF" d="M8.34,265.199c-0.184-0.79-0.631-1.343-1.343-1.656c-0.398-0.173-0.841-0.26-1.327-0.26
		c-0.932,0-1.698,0.352-2.297,1.055c-0.6,0.703-0.899,1.76-0.899,3.17c0,1.422,0.324,2.428,0.974,3.019
		c0.649,0.59,1.388,0.886,2.215,0.886c0.812,0,1.477-0.233,1.994-0.699c0.519-0.465,0.838-1.075,0.959-1.83H5.937v-1.932h4.822
		v6.212H9.156l-0.243-1.445c-0.466,0.548-0.885,0.934-1.257,1.157c-0.639,0.391-1.424,0.587-2.355,0.587
		c-1.534,0-2.791-0.531-3.77-1.594C0.51,270.801,0,269.341,0,267.489c0-1.873,0.516-3.375,1.547-4.505
		c1.031-1.131,2.396-1.695,4.092-1.695c1.471,0,2.652,0.373,3.546,1.119c0.893,0.746,1.404,1.677,1.535,2.791L8.34,265.199
		L8.34,265.199z"/>
	<path fill="#FFFFFF" d="M16.277,267.956c0.417-0.052,0.715-0.117,0.895-0.196c0.321-0.136,0.482-0.348,0.482-0.636
		c0-0.351-0.123-0.593-0.37-0.727s-0.609-0.2-1.087-0.2c-0.536,0-0.915,0.131-1.138,0.393c-0.16,0.193-0.266,0.455-0.319,0.785
		h-2.159c0.047-0.749,0.258-1.363,0.631-1.846c0.594-0.754,1.614-1.131,3.061-1.131c0.941,0,1.777,0.187,2.508,0.558
		c0.731,0.372,1.097,1.073,1.097,2.104v3.927c0,0.272,0.005,0.603,0.016,0.99c0.016,0.293,0.061,0.492,0.134,0.597
		s0.183,0.191,0.329,0.259v0.33h-2.435c-0.067-0.173-0.115-0.335-0.141-0.487c-0.026-0.151-0.048-0.324-0.063-0.518
		c-0.311,0.335-0.669,0.62-1.074,0.855c-0.484,0.277-1.032,0.416-1.643,0.416c-0.779,0-1.424-0.221-1.932-0.663
		s-0.763-1.069-0.763-1.881c0-1.053,0.409-1.814,1.227-2.285c0.448-0.257,1.107-0.44,1.979-0.55L16.277,267.956z M17.646,269.001
		c-0.144,0.089-0.288,0.161-0.434,0.216s-0.347,0.105-0.602,0.153l-0.51,0.094c-0.478,0.084-0.82,0.187-1.028,0.307
		c-0.353,0.204-0.529,0.521-0.529,0.95c0,0.382,0.108,0.658,0.323,0.828c0.216,0.171,0.478,0.256,0.785,0.256
		c0.489,0,0.94-0.142,1.353-0.425c0.412-0.282,0.626-0.798,0.642-1.547V269.001z"/>
	<path fill="#FFFFFF" d="M26.588,264.402c0.028,0.003,0.093,0.007,0.192,0.012v2.294c-0.142-0.017-0.267-0.026-0.377-0.032
		c-0.11-0.005-0.199-0.008-0.267-0.008c-0.901,0-1.506,0.294-1.814,0.88c-0.173,0.33-0.26,0.838-0.26,1.523v4.092h-2.254v-8.561
		h2.137v1.492c0.346-0.57,0.646-0.961,0.903-1.17c0.419-0.351,0.963-0.526,1.633-0.526C26.523,264.398,26.559,264.4,26.588,264.402z
		"/>
	<path fill="#FFFFFF" d="M31.481,267.956c0.417-0.052,0.715-0.117,0.895-0.196c0.321-0.136,0.482-0.348,0.482-0.636
		c0-0.351-0.123-0.593-0.37-0.727s-0.609-0.2-1.087-0.2c-0.536,0-0.915,0.131-1.138,0.393c-0.16,0.193-0.266,0.455-0.319,0.785
		h-2.159c0.047-0.749,0.258-1.363,0.631-1.846c0.594-0.754,1.614-1.131,3.061-1.131c0.941,0,1.777,0.187,2.508,0.558
		c0.731,0.372,1.097,1.073,1.097,2.104v3.927c0,0.272,0.005,0.603,0.016,0.99c0.016,0.293,0.061,0.492,0.134,0.597
		s0.183,0.191,0.329,0.259v0.33h-2.435c-0.067-0.173-0.115-0.335-0.141-0.487c-0.026-0.151-0.048-0.324-0.063-0.518
		c-0.311,0.335-0.669,0.62-1.074,0.855c-0.484,0.277-1.032,0.416-1.643,0.416c-0.779,0-1.424-0.221-1.932-0.663
		s-0.763-1.069-0.763-1.881c0-1.053,0.409-1.814,1.227-2.285c0.448-0.257,1.107-0.44,1.979-0.55L31.481,267.956z M32.851,269.001
		c-0.144,0.089-0.288,0.161-0.434,0.216s-0.347,0.105-0.602,0.153l-0.51,0.094c-0.478,0.084-0.82,0.187-1.028,0.307
		c-0.353,0.204-0.529,0.521-0.529,0.95c0,0.382,0.108,0.658,0.323,0.828c0.216,0.171,0.478,0.256,0.785,0.256
		c0.489,0,0.94-0.142,1.353-0.425c0.412-0.282,0.626-0.798,0.642-1.547V269.001z"/>
	<path fill="#FFFFFF" d="M43.939,265.094c0.561,0.463,0.841,1.231,0.841,2.305v5.765h-2.293v-5.207c0-0.45-0.061-0.796-0.18-1.036
		c-0.219-0.44-0.634-0.66-1.247-0.66c-0.754,0-1.271,0.322-1.552,0.966c-0.146,0.341-0.218,0.775-0.218,1.304v4.634h-2.238v-8.545
		h2.167v1.249c0.287-0.439,0.558-0.757,0.813-0.95c0.459-0.346,1.04-0.519,1.744-0.519C42.658,264.398,43.379,264.63,43.939,265.094
		z"/>
	<path fill="#FFFFFF" d="M45.981,266.275v-1.594h1.193v-2.388h2.215v2.388h1.391v1.594h-1.39v4.523c0,0.352,0.045,0.569,0.134,0.656
		c0.089,0.086,0.361,0.13,0.816,0.13c0.068,0,0.141-0.002,0.216-0.004c0.076-0.003,0.15-0.007,0.225-0.013v1.673l-1.061,0.04
		c-1.058,0.036-1.78-0.146-2.168-0.55c-0.251-0.257-0.377-0.652-0.377-1.187v-5.27h-1.194
		C45.981,266.273,45.981,266.275,45.981,266.275z"/>
	<path fill="#FFFFFF" d="M56.104,261.101l-2.387,2.348H52.1l1.508-2.348H56.104z M52.249,264.603h2.27v8.561h-2.27V264.603z"/>
	<path fill="#FFFFFF" d="M60.076,267.956c0.417-0.052,0.715-0.117,0.895-0.196c0.321-0.136,0.482-0.348,0.482-0.636
		c0-0.351-0.123-0.593-0.37-0.727s-0.609-0.2-1.087-0.2c-0.536,0-0.915,0.131-1.138,0.393c-0.16,0.193-0.266,0.455-0.319,0.785
		H56.38c0.047-0.749,0.258-1.363,0.631-1.846c0.594-0.754,1.614-1.131,3.061-1.131c0.941,0,1.777,0.187,2.508,0.558
		c0.731,0.372,1.097,1.073,1.097,2.104v3.927c0,0.272,0.005,0.603,0.016,0.99c0.016,0.293,0.061,0.492,0.134,0.597
		s0.183,0.191,0.329,0.259v0.33H61.72c-0.067-0.173-0.115-0.335-0.141-0.487c-0.026-0.151-0.048-0.324-0.063-0.518
		c-0.311,0.335-0.669,0.62-1.074,0.855c-0.484,0.277-1.032,0.416-1.643,0.416c-0.779,0-1.424-0.221-1.932-0.663
		s-0.763-1.069-0.763-1.881c0-1.053,0.409-1.814,1.227-2.285c0.448-0.257,1.107-0.44,1.979-0.55L60.076,267.956z M61.445,269.001
		c-0.144,0.089-0.288,0.161-0.434,0.216s-0.347,0.105-0.602,0.153l-0.51,0.094c-0.478,0.084-0.82,0.187-1.028,0.307
		c-0.353,0.204-0.529,0.521-0.529,0.95c0,0.382,0.108,0.658,0.323,0.828c0.216,0.171,0.478,0.256,0.785,0.256
		c0.489,0,0.94-0.142,1.353-0.425c0.412-0.282,0.626-0.798,0.642-1.547C61.445,269.833,61.445,269.001,61.445,269.001z"/>
	<path fill="#FFFFFF" d="M67.367,270.43c0.047,0.398,0.149,0.681,0.308,0.849c0.278,0.299,0.794,0.447,1.547,0.447
		c0.441,0,0.793-0.065,1.054-0.196c0.26-0.131,0.39-0.327,0.39-0.589c0-0.251-0.104-0.442-0.314-0.573s-0.99-0.355-2.341-0.676
		c-0.974-0.24-1.658-0.541-2.057-0.902c-0.397-0.356-0.597-0.869-0.597-1.54c0-0.79,0.311-1.47,0.933-2.037
		c0.622-0.568,1.497-0.853,2.625-0.853c1.07,0,1.942,0.213,2.616,0.64c0.675,0.427,1.062,1.164,1.161,2.211h-2.238
		c-0.031-0.288-0.112-0.516-0.244-0.683c-0.246-0.304-0.667-0.456-1.26-0.456c-0.488,0-0.836,0.076-1.043,0.228
		c-0.208,0.152-0.312,0.33-0.312,0.534c0,0.257,0.11,0.442,0.331,0.558c0.221,0.121,0.999,0.327,2.337,0.62
		c0.892,0.21,1.56,0.526,2.005,0.951c0.439,0.429,0.66,0.966,0.66,1.609c0,0.849-0.316,1.541-0.949,2.077
		c-0.632,0.537-1.608,0.806-2.931,0.806c-1.349,0-2.344-0.284-2.986-0.853s-0.964-1.292-0.964-2.172H67.367z"/>
</g>
<g>
	<path fill="#FFFFFF" d="M223.231,11.646h-2.403V0.07h2.403V11.646z"/>
	<path fill="#FFFFFF" d="M232.216,3.577c0.561,0.463,0.841,1.231,0.841,2.305v5.765h-2.293V6.439c0-0.45-0.061-0.796-0.18-1.036
		c-0.219-0.44-0.634-0.66-1.247-0.66c-0.754,0-1.271,0.322-1.552,0.966c-0.146,0.341-0.218,0.775-0.218,1.304v4.634h-2.238V3.102
		h2.167v1.249c0.287-0.439,0.558-0.757,0.813-0.95c0.459-0.346,1.04-0.519,1.744-0.519C230.935,2.882,231.655,3.113,232.216,3.577z"
		/>
	<path fill="#FFFFFF" d="M240.258,6.157c-0.042-0.319-0.149-0.607-0.323-0.864c-0.252-0.346-0.643-0.519-1.173-0.519
		c-0.756,0-1.272,0.375-1.551,1.123c-0.146,0.397-0.221,0.925-0.221,1.583c0,0.626,0.074,1.131,0.221,1.512
		c0.268,0.712,0.771,1.068,1.512,1.068c0.524,0,0.897-0.142,1.118-0.425c0.22-0.282,0.354-0.648,0.401-1.1h2.285
		c-0.053,0.681-0.299,1.325-0.739,1.933c-0.702,0.979-1.742,1.469-3.12,1.469c-1.379,0-2.393-0.409-3.043-1.226
		c-0.649-0.816-0.975-1.876-0.975-3.177c0-1.469,0.359-2.611,1.077-3.428s1.708-1.226,2.972-1.226c1.074,0,1.953,0.241,2.637,0.723
		c0.685,0.481,1.089,1.333,1.215,2.553h-2.293L240.258,6.157L240.258,6.157z"/>
	<path fill="#FFFFFF" d="M249.661,3.26c0.597,0.268,1.09,0.689,1.479,1.267c0.351,0.508,0.578,1.098,0.683,1.77
		c0.06,0.394,0.085,0.959,0.073,1.698h-6.234c0.035,0.859,0.333,1.461,0.896,1.807c0.342,0.215,0.753,0.322,1.233,0.322
		c0.51,0,0.925-0.131,1.243-0.393c0.174-0.142,0.327-0.338,0.461-0.589h2.285c-0.061,0.508-0.337,1.023-0.83,1.547
		c-0.767,0.832-1.84,1.249-3.221,1.249c-1.139,0-2.145-0.352-3.015-1.054c-0.871-0.702-1.307-1.845-1.307-3.427
		c0-1.483,0.393-2.62,1.18-3.411c0.785-0.792,1.806-1.188,3.061-1.188C248.393,2.858,249.063,2.992,249.661,3.26z M246.312,5.193
		c-0.316,0.326-0.516,0.768-0.597,1.325h3.856c-0.041-0.595-0.239-1.045-0.597-1.353c-0.356-0.309-0.799-0.462-1.327-0.462
		C247.074,4.704,246.629,4.867,246.312,5.193z"/>
	<path fill="#FFFFFF" d="M259.931,3.577c0.561,0.463,0.841,1.231,0.841,2.305v5.765h-2.293V6.439c0-0.45-0.061-0.796-0.18-1.036
		c-0.219-0.44-0.634-0.66-1.247-0.66c-0.754,0-1.271,0.322-1.552,0.966c-0.146,0.341-0.218,0.775-0.218,1.304v4.634h-2.238V3.102
		h2.167v1.249c0.287-0.439,0.558-0.757,0.813-0.95c0.459-0.346,1.04-0.519,1.744-0.519C258.649,2.882,259.37,3.113,259.931,3.577z"
		/>
	<path fill="#FFFFFF" d="M267.392,3.224c0.403,0.228,0.73,0.543,0.981,0.946V0.086h2.27v11.561h-2.175v-1.186
		c-0.32,0.508-0.684,0.877-1.092,1.107c-0.408,0.229-0.917,0.345-1.523,0.345c-1,0-1.842-0.404-2.525-1.213
		s-1.024-1.847-1.024-3.114c0-1.46,0.336-2.609,1.009-3.447s1.572-1.257,2.697-1.257C266.527,2.882,266.988,2.996,267.392,3.224z
		 M267.941,9.322c0.33-0.472,0.494-1.081,0.494-1.83c0-1.047-0.264-1.796-0.793-2.246c-0.324-0.272-0.701-0.408-1.131-0.408
		c-0.654,0-1.135,0.247-1.441,0.742c-0.306,0.494-0.459,1.108-0.459,1.841c0,0.791,0.155,1.423,0.467,1.897s0.784,0.71,1.418,0.71
		S267.611,9.793,267.941,9.322z"/>
	<path fill="#FFFFFF" d="M274.979,2.065h-2.27V0h2.27V2.065z M272.709,3.086h2.27v8.561h-2.27V3.086z"/>
	<path fill="#FFFFFF" d="M284.285,10.6c-0.723,0.892-1.819,1.338-3.291,1.338c-1.471,0-2.568-0.446-3.29-1.338
		c-0.723-0.893-1.084-1.966-1.084-3.222c0-1.234,0.361-2.304,1.084-3.209c0.722-0.905,1.819-1.357,3.29-1.357
		c1.472,0,2.568,0.452,3.291,1.357s1.084,1.975,1.084,3.209C285.369,8.634,285.008,9.707,284.285,10.6z M282.494,9.362
		c0.351-0.466,0.526-1.127,0.526-1.984s-0.176-1.518-0.526-1.979c-0.351-0.463-0.854-0.694-1.508-0.694s-1.158,0.231-1.512,0.694
		c-0.354,0.462-0.53,1.122-0.53,1.979s0.177,1.519,0.53,1.984c0.354,0.465,0.857,0.698,1.512,0.698S282.144,9.827,282.494,9.362z"/>
	<path fill="#FFFFFF" d="M228.443,19.67c0.426,0.183,0.787,0.453,1.084,0.809c0.245,0.293,0.438,0.618,0.582,0.974
		c0.143,0.356,0.214,0.762,0.214,1.218c0,0.55-0.139,1.09-0.416,1.621c-0.277,0.532-0.735,0.907-1.374,1.127
		c0.534,0.215,0.912,0.521,1.135,0.915c0.223,0.396,0.333,0.999,0.333,1.811v0.777c0,0.529,0.021,0.888,0.064,1.076
		c0.063,0.299,0.213,0.519,0.446,0.659v0.291h-2.67c-0.073-0.257-0.126-0.463-0.157-0.62c-0.062-0.325-0.097-0.657-0.102-0.998
		l-0.017-1.075c-0.01-0.738-0.137-1.23-0.382-1.477s-0.705-0.369-1.378-0.369h-2.363v4.539h-2.363V19.371h5.537
		C227.408,19.387,228.017,19.486,228.443,19.67z M223.443,21.382v3.11h2.604c0.518,0,0.905-0.063,1.164-0.188
		c0.457-0.221,0.686-0.655,0.686-1.304c0-0.702-0.221-1.173-0.664-1.414c-0.248-0.136-0.621-0.204-1.118-0.204H223.443z"/>
	<path fill="#FFFFFF" d="M234.761,21.366h-2.27v-2.065h2.27V21.366z M232.491,22.387h2.27v8.561h-2.27V22.387z"/>
	<path fill="#FFFFFF" d="M242.507,22.561c0.597,0.268,1.09,0.689,1.479,1.267c0.351,0.508,0.578,1.098,0.683,1.77
		c0.06,0.394,0.085,0.959,0.073,1.698h-6.234c0.035,0.859,0.333,1.461,0.896,1.807c0.342,0.215,0.753,0.322,1.233,0.322
		c0.51,0,0.925-0.131,1.243-0.393c0.174-0.142,0.327-0.338,0.461-0.589h2.285c-0.061,0.508-0.337,1.023-0.83,1.547
		c-0.767,0.832-1.84,1.249-3.221,1.249c-1.139,0-2.145-0.352-3.015-1.054c-0.871-0.702-1.307-1.845-1.307-3.427
		c0-1.483,0.393-2.62,1.18-3.411c0.785-0.792,1.806-1.188,3.061-1.188C241.238,22.159,241.909,22.293,242.507,22.561z
		 M239.158,24.494c-0.316,0.326-0.516,0.768-0.597,1.325h3.856c-0.041-0.595-0.239-1.045-0.597-1.353
		c-0.356-0.309-0.799-0.462-1.327-0.462C239.92,24.005,239.475,24.168,239.158,24.494z"/>
	<path fill="#FFFFFF" d="M247.609,28.214c0.047,0.398,0.149,0.681,0.308,0.849c0.278,0.299,0.794,0.447,1.547,0.447
		c0.441,0,0.793-0.065,1.054-0.196c0.26-0.131,0.39-0.327,0.39-0.589c0-0.251-0.104-0.442-0.314-0.573s-0.99-0.355-2.341-0.676
		c-0.974-0.24-1.658-0.541-2.057-0.902c-0.397-0.356-0.597-0.869-0.597-1.54c0-0.79,0.311-1.47,0.933-2.037
		c0.622-0.568,1.497-0.853,2.625-0.853c1.07,0,1.942,0.213,2.616,0.64c0.675,0.427,1.062,1.164,1.161,2.211h-2.238
		c-0.031-0.288-0.112-0.516-0.244-0.683c-0.246-0.304-0.667-0.456-1.26-0.456c-0.488,0-0.836,0.076-1.043,0.228
		c-0.208,0.152-0.312,0.33-0.312,0.534c0,0.257,0.11,0.442,0.331,0.558c0.221,0.121,0.999,0.327,2.337,0.62
		c0.892,0.21,1.56,0.526,2.005,0.951c0.439,0.429,0.66,0.966,0.66,1.609c0,0.849-0.316,1.541-0.949,2.077
		c-0.632,0.537-1.608,0.806-2.931,0.806c-1.349,0-2.344-0.284-2.986-0.853s-0.964-1.292-0.964-2.172H247.609z"/>
	<path fill="#FFFFFF" d="M259.053,22.379c0.544,0.226,0.982,0.639,1.317,1.241v-1.233h2.184v8.121c0,1.104-0.186,1.937-0.558,2.497
		c-0.639,0.963-1.864,1.445-3.676,1.445c-1.094,0-1.986-0.215-2.678-0.645c-0.691-0.429-1.073-1.07-1.146-1.924h2.435
		c0.062,0.262,0.165,0.45,0.306,0.565c0.241,0.204,0.647,0.307,1.218,0.307c0.807,0,1.346-0.271,1.618-0.81
		c0.178-0.346,0.267-0.927,0.267-1.743v-0.55c-0.215,0.366-0.445,0.642-0.691,0.824c-0.444,0.341-1.023,0.511-1.735,0.511
		c-1.1,0-1.978-0.386-2.635-1.158s-0.985-1.818-0.985-3.138c0-1.272,0.316-2.341,0.949-3.208c0.632-0.866,1.529-1.3,2.689-1.3
		C258.359,22.183,258.733,22.248,259.053,22.379z M259.815,28.517c0.359-0.396,0.539-1.024,0.539-1.889
		c0-0.812-0.171-1.43-0.512-1.854c-0.342-0.424-0.8-0.636-1.373-0.636c-0.782,0-1.321,0.369-1.619,1.107
		c-0.156,0.393-0.234,0.877-0.234,1.452c0,0.498,0.084,0.94,0.25,1.327c0.303,0.723,0.845,1.084,1.627,1.084
		C259.015,29.109,259.455,28.912,259.815,28.517z"/>
	<path fill="#FFFFFF" d="M271.782,29.9c-0.723,0.892-1.819,1.338-3.291,1.338c-1.471,0-2.568-0.446-3.29-1.338
		c-0.723-0.893-1.084-1.966-1.084-3.222c0-1.234,0.361-2.304,1.084-3.209c0.722-0.905,1.819-1.357,3.29-1.357
		c1.472,0,2.568,0.452,3.291,1.357s1.084,1.975,1.084,3.209C272.866,27.935,272.505,29.008,271.782,29.9z M269.991,28.663
		c0.351-0.466,0.526-1.127,0.526-1.984s-0.176-1.518-0.526-1.979c-0.351-0.463-0.854-0.694-1.508-0.694s-1.158,0.231-1.512,0.694
		c-0.354,0.462-0.53,1.122-0.53,1.979s0.177,1.519,0.53,1.984c0.354,0.465,0.857,0.698,1.512,0.698S269.641,29.128,269.991,28.663z"
		/>
	<path fill="#FFFFFF" d="M279.101,30.947V19.371h2.403v4.414h4.5v-4.414h2.403v11.576h-2.403v-5.168h-4.5v5.168
		C281.504,30.947,279.101,30.947,279.101,30.947z"/>
	<path fill="#FFFFFF" d="M292.853,21.366h-2.27v-2.065h2.27V21.366z M290.583,22.387h2.27v8.561h-2.27V22.387z"/>
	<path fill="#FFFFFF" d="M302.219,23.306c0.698,0.738,1.048,1.822,1.048,3.252c0,1.508-0.342,2.656-1.024,3.447
		c-0.682,0.791-1.561,1.186-2.636,1.186c-0.685,0-1.254-0.17-1.707-0.51c-0.248-0.188-0.49-0.464-0.728-0.825v4.461h-2.215v-11.93
		h2.145v1.265c0.242-0.372,0.5-0.665,0.774-0.88c0.5-0.382,1.096-0.573,1.786-0.573C300.669,22.198,301.521,22.567,302.219,23.306z
		 M300.501,24.916c-0.304-0.508-0.797-0.762-1.479-0.762c-0.82,0-1.383,0.385-1.69,1.154c-0.158,0.408-0.237,0.927-0.237,1.555
		c0,0.995,0.267,1.694,0.801,2.097c0.317,0.236,0.692,0.354,1.126,0.354c0.63,0,1.11-0.24,1.44-0.723
		c0.331-0.481,0.496-1.123,0.496-1.924C300.957,26.008,300.805,25.424,300.501,24.916z"/>
	<path fill="#FFFFFF" d="M311.984,29.9c-0.723,0.892-1.819,1.338-3.291,1.338c-1.471,0-2.568-0.446-3.29-1.338
		c-0.723-0.893-1.084-1.966-1.084-3.222c0-1.234,0.361-2.304,1.084-3.209c0.722-0.905,1.819-1.357,3.29-1.357
		c1.472,0,2.568,0.452,3.291,1.357s1.084,1.975,1.084,3.209C313.068,27.935,312.707,29.008,311.984,29.9z M310.193,28.663
		c0.351-0.466,0.526-1.127,0.526-1.984s-0.176-1.518-0.526-1.979c-0.351-0.463-0.854-0.694-1.508-0.694s-1.158,0.231-1.512,0.694
		c-0.354,0.462-0.53,1.122-0.53,1.979s0.177,1.519,0.53,1.984c0.354,0.465,0.857,0.698,1.512,0.698S309.843,29.128,310.193,28.663z"
		/>
	<path fill="#FFFFFF" d="M313.79,24.06v-1.594h1.193v-2.388h2.215v2.388h1.391v1.594h-1.391v4.523c0,0.352,0.045,0.569,0.134,0.656
		c0.089,0.086,0.361,0.13,0.816,0.13c0.068,0,0.141-0.002,0.216-0.004c0.076-0.003,0.15-0.007,0.225-0.013v1.673l-1.061,0.04
		c-1.058,0.036-1.78-0.146-2.168-0.55c-0.251-0.257-0.377-0.652-0.377-1.187v-5.27h-1.193V24.06z"/>
	<path fill="#FFFFFF" d="M325.604,22.561c0.597,0.268,1.09,0.689,1.479,1.267c0.351,0.508,0.578,1.098,0.683,1.77
		c0.06,0.394,0.085,0.959,0.073,1.698h-6.234c0.035,0.859,0.333,1.461,0.896,1.807c0.342,0.215,0.753,0.322,1.233,0.322
		c0.51,0,0.925-0.131,1.243-0.393c0.174-0.142,0.327-0.338,0.461-0.589h2.285c-0.061,0.508-0.337,1.023-0.83,1.547
		c-0.767,0.832-1.84,1.249-3.221,1.249c-1.139,0-2.145-0.352-3.015-1.054c-0.871-0.702-1.307-1.845-1.307-3.427
		c0-1.483,0.393-2.62,1.18-3.411c0.785-0.792,1.806-1.188,3.061-1.188C324.336,22.159,325.007,22.293,325.604,22.561z
		 M322.256,24.494c-0.316,0.326-0.516,0.768-0.597,1.325h3.856c-0.041-0.595-0.239-1.045-0.597-1.353
		c-0.356-0.309-0.799-0.462-1.327-0.462C323.018,24.005,322.572,24.168,322.256,24.494z"/>
	<path fill="#FFFFFF" d="M334.092,25.458c-0.042-0.319-0.149-0.607-0.323-0.864c-0.252-0.346-0.643-0.519-1.173-0.519
		c-0.756,0-1.272,0.375-1.551,1.123c-0.146,0.397-0.221,0.925-0.221,1.583c0,0.626,0.074,1.131,0.221,1.512
		c0.268,0.712,0.771,1.068,1.512,1.068c0.524,0,0.897-0.142,1.118-0.425c0.22-0.282,0.354-0.648,0.401-1.1h2.285
		c-0.053,0.681-0.299,1.325-0.739,1.933c-0.702,0.979-1.742,1.469-3.12,1.469c-1.379,0-2.393-0.409-3.043-1.226
		c-0.649-0.816-0.975-1.876-0.975-3.177c0-1.469,0.359-2.611,1.077-3.428s1.708-1.226,2.972-1.226c1.074,0,1.953,0.241,2.637,0.723
		c0.685,0.481,1.089,1.333,1.215,2.553L334.092,25.458L334.092,25.458z"/>
	<path fill="#FFFFFF" d="M341.306,25.74c0.417-0.052,0.715-0.117,0.895-0.196c0.321-0.136,0.482-0.348,0.482-0.636
		c0-0.351-0.123-0.593-0.37-0.727s-0.609-0.2-1.087-0.2c-0.536,0-0.915,0.131-1.138,0.393c-0.16,0.193-0.266,0.455-0.319,0.785
		h-2.159c0.047-0.749,0.258-1.363,0.631-1.846c0.594-0.754,1.614-1.131,3.061-1.131c0.941,0,1.777,0.187,2.508,0.558
		c0.731,0.372,1.097,1.073,1.097,2.104v3.927c0,0.272,0.005,0.603,0.016,0.99c0.016,0.293,0.061,0.492,0.134,0.597
		s0.183,0.191,0.329,0.259v0.33h-2.435c-0.067-0.173-0.115-0.335-0.141-0.487c-0.026-0.151-0.048-0.324-0.063-0.518
		c-0.311,0.335-0.669,0.62-1.074,0.855c-0.484,0.277-1.032,0.416-1.643,0.416c-0.779,0-1.424-0.221-1.932-0.663
		s-0.763-1.069-0.763-1.881c0-1.053,0.409-1.814,1.227-2.285c0.448-0.257,1.107-0.44,1.979-0.55L341.306,25.74z M342.675,26.785
		c-0.144,0.089-0.288,0.161-0.434,0.216s-0.347,0.105-0.602,0.153l-0.51,0.094c-0.478,0.084-0.82,0.187-1.028,0.307
		c-0.353,0.204-0.529,0.521-0.529,0.95c0,0.382,0.108,0.658,0.323,0.828c0.216,0.171,0.478,0.256,0.785,0.256
		c0.489,0,0.94-0.142,1.353-0.425c0.412-0.282,0.626-0.798,0.642-1.547V26.785z"/>
	<path fill="#FFFFFF" d="M351.616,22.187c0.028,0.003,0.093,0.007,0.192,0.012v2.294c-0.142-0.017-0.267-0.026-0.377-0.032
		c-0.11-0.005-0.199-0.008-0.267-0.008c-0.901,0-1.506,0.294-1.814,0.88c-0.173,0.33-0.26,0.838-0.26,1.523v4.092h-2.254v-8.561
		h2.137v1.492c0.346-0.57,0.646-0.961,0.903-1.17c0.419-0.351,0.963-0.526,1.633-0.526
		C351.552,22.183,351.587,22.185,351.616,22.187z"/>
	<path fill="#FFFFFF" d="M355.422,21.366h-2.27v-2.065h2.27V21.366z M353.152,22.387h2.27v8.561h-2.27V22.387z"/>
	<path fill="#FFFFFF" d="M364.728,29.9c-0.723,0.892-1.819,1.338-3.291,1.338c-1.471,0-2.568-0.446-3.29-1.338
		c-0.723-0.893-1.084-1.966-1.084-3.222c0-1.234,0.361-2.304,1.084-3.209c0.722-0.905,1.819-1.357,3.29-1.357
		c1.472,0,2.568,0.452,3.291,1.357s1.084,1.975,1.084,3.209C365.812,27.935,365.45,29.008,364.728,29.9z M362.937,28.663
		c0.351-0.466,0.526-1.127,0.526-1.984s-0.176-1.518-0.526-1.979c-0.351-0.463-0.854-0.694-1.508-0.694s-1.158,0.231-1.512,0.694
		c-0.354,0.462-0.53,1.122-0.53,1.979s0.177,1.519,0.53,1.984c0.354,0.465,0.857,0.698,1.512,0.698S362.586,29.128,362.937,28.663z"
		/>
</g>
<g>
	<path fill="#FFFFFF" d="M49.719,9.069c0.075,0.528,0.222,0.924,0.44,1.186c0.401,0.477,1.088,0.715,2.062,0.715
		c0.582,0,1.056-0.062,1.419-0.188c0.689-0.24,1.034-0.688,1.034-1.343c0-0.382-0.169-0.678-0.507-0.888
		c-0.338-0.204-0.873-0.385-1.606-0.542l-1.254-0.274c-1.231-0.272-2.078-0.568-2.538-0.888c-0.78-0.534-1.17-1.369-1.17-2.505
		c0-1.037,0.381-1.898,1.145-2.584c0.763-0.686,1.884-1.029,3.362-1.029c1.235,0,2.289,0.323,3.16,0.971
		c0.872,0.646,1.329,1.585,1.372,2.815h-2.325c-0.043-0.696-0.354-1.191-0.934-1.484c-0.387-0.194-0.867-0.291-1.441-0.291
		c-0.639,0-1.148,0.126-1.529,0.377S49.837,3.72,49.837,4.17c0,0.413,0.188,0.723,0.564,0.927c0.241,0.136,0.754,0.296,1.537,0.479
		l2.032,0.479c0.89,0.209,1.558,0.489,2.002,0.84c0.689,0.545,1.035,1.333,1.035,2.364c0,1.058-0.409,1.936-1.227,2.635
		s-1.973,1.049-3.465,1.049c-1.524,0-2.723-0.345-3.596-1.033c-0.874-0.688-1.31-1.635-1.31-2.839h2.31
		C49.719,9.071,49.719,9.069,49.719,9.069z"/>
	<path fill="#FFFFFF" d="M61.913,7.436c0.417-0.052,0.715-0.117,0.895-0.196c0.321-0.136,0.482-0.348,0.482-0.636
		c0-0.351-0.123-0.593-0.37-0.727s-0.609-0.2-1.087-0.2c-0.536,0-0.915,0.131-1.138,0.393c-0.16,0.193-0.266,0.455-0.319,0.785
		h-2.159c0.047-0.749,0.258-1.363,0.631-1.846c0.594-0.754,1.614-1.131,3.061-1.131c0.941,0,1.777,0.187,2.508,0.558
		c0.731,0.372,1.097,1.073,1.097,2.104v3.927c0,0.272,0.005,0.603,0.016,0.99c0.016,0.293,0.061,0.492,0.134,0.597
		s0.183,0.191,0.329,0.259v0.33h-2.435c-0.067-0.173-0.115-0.335-0.141-0.487c-0.026-0.151-0.048-0.324-0.063-0.518
		c-0.311,0.335-0.669,0.62-1.074,0.855c-0.484,0.277-1.032,0.416-1.643,0.416c-0.779,0-1.424-0.221-1.932-0.663
		s-0.763-1.069-0.763-1.881c0-1.053,0.409-1.814,1.227-2.285c0.448-0.257,1.107-0.44,1.979-0.55L61.913,7.436z M63.282,8.48
		c-0.144,0.089-0.288,0.161-0.434,0.216c-0.146,0.055-0.347,0.105-0.602,0.153l-0.51,0.094c-0.478,0.084-0.82,0.187-1.028,0.307
		c-0.353,0.204-0.529,0.521-0.529,0.95c0,0.382,0.108,0.658,0.323,0.828c0.216,0.171,0.478,0.256,0.785,0.256
		c0.489,0,0.94-0.142,1.353-0.425c0.412-0.282,0.626-0.798,0.642-1.547C63.282,9.312,63.282,8.48,63.282,8.48z"/>
	<path fill="#FFFFFF" d="M69.753,12.643h-2.238V1.066h2.238V12.643z"/>
	<path fill="#FFFFFF" d="M76.476,4.22c0.403,0.228,0.73,0.543,0.981,0.946V1.082h2.27v11.561h-2.175v-1.186
		c-0.32,0.508-0.684,0.877-1.092,1.107c-0.408,0.229-0.917,0.345-1.523,0.345c-1,0-1.842-0.404-2.525-1.213
		s-1.024-1.847-1.024-3.114c0-1.46,0.336-2.609,1.009-3.447s1.572-1.257,2.697-1.257C75.612,3.878,76.073,3.992,76.476,4.22z
		 M77.026,10.318c0.33-0.472,0.494-1.081,0.494-1.83c0-1.047-0.264-1.796-0.793-2.246c-0.324-0.272-0.701-0.408-1.131-0.408
		c-0.654,0-1.135,0.247-1.441,0.742c-0.306,0.494-0.459,1.108-0.459,1.841c0,0.791,0.155,1.423,0.467,1.897
		c0.312,0.474,0.784,0.71,1.418,0.71S76.696,10.789,77.026,10.318z"/>
	<path fill="#FFFFFF" d="M88.9,11.596c-0.723,0.892-1.819,1.338-3.291,1.338c-1.471,0-2.568-0.446-3.29-1.338
		c-0.723-0.893-1.084-1.966-1.084-3.222c0-1.234,0.361-2.304,1.084-3.209c0.722-0.905,1.819-1.357,3.29-1.357
		c1.472,0,2.568,0.452,3.291,1.357s1.084,1.975,1.084,3.209C89.984,9.63,89.623,10.703,88.9,11.596z M87.109,10.358
		c0.351-0.466,0.526-1.127,0.526-1.984s-0.176-1.518-0.526-1.979C86.758,5.932,86.255,5.7,85.601,5.7s-1.158,0.231-1.512,0.694
		c-0.354,0.462-0.53,1.122-0.53,1.979s0.177,1.519,0.53,1.984c0.354,0.465,0.857,0.698,1.512,0.698S86.758,10.823,87.109,10.358z"/>
	<path fill="#FFFFFF" d="M42.255,20.619c0.812,0.267,1.47,0.756,1.973,1.468c0.404,0.576,0.679,1.199,0.825,1.869
		c0.147,0.671,0.221,1.31,0.221,1.917c0,1.539-0.31,2.843-0.928,3.91c-0.838,1.44-2.133,2.16-3.883,2.16h-4.99V20.367h4.99
		C41.181,20.378,41.779,20.462,42.255,20.619z M37.821,22.378v7.555h2.234c1.143,0,1.939-0.562,2.391-1.688
		c0.246-0.617,0.37-1.354,0.37-2.207c0-1.178-0.186-2.082-0.555-2.713c-0.37-0.631-1.105-0.946-2.206-0.946h-2.234
		C37.821,22.379,37.821,22.378,37.821,22.378z"/>
	<path fill="#FFFFFF" d="M52.486,23.557c0.597,0.268,1.09,0.689,1.479,1.267c0.351,0.508,0.578,1.098,0.683,1.77
		c0.06,0.394,0.085,0.959,0.073,1.698h-6.234c0.035,0.859,0.333,1.461,0.896,1.807c0.342,0.215,0.753,0.322,1.233,0.322
		c0.51,0,0.925-0.131,1.243-0.393c0.174-0.142,0.327-0.338,0.461-0.589h2.285c-0.061,0.508-0.337,1.023-0.83,1.547
		c-0.767,0.832-1.84,1.249-3.221,1.249c-1.139,0-2.145-0.352-3.015-1.054c-0.871-0.702-1.307-1.845-1.307-3.427
		c0-1.483,0.393-2.62,1.18-3.411c0.785-0.792,1.806-1.188,3.061-1.188C51.217,23.155,51.888,23.289,52.486,23.557z M49.137,25.49
		c-0.316,0.326-0.516,0.768-0.597,1.325h3.856c-0.041-0.595-0.239-1.045-0.597-1.353C51.443,25.153,51,25,50.472,25
		C49.899,25.001,49.454,25.164,49.137,25.49z"/>
	<path fill="#FFFFFF" d="M58.083,23.383v5.16c0,0.486,0.058,0.854,0.173,1.1c0.203,0.435,0.602,0.651,1.195,0.651
		c0.761,0,1.281-0.309,1.562-0.927c0.146-0.335,0.219-0.777,0.219-1.327v-4.657h2.27v8.561h-2.175v-1.209
		c-0.021,0.025-0.073,0.104-0.157,0.235c-0.083,0.131-0.183,0.246-0.297,0.346c-0.35,0.313-0.688,0.528-1.015,0.644
		s-0.709,0.173-1.147,0.173c-1.263,0-2.114-0.455-2.553-1.366c-0.245-0.503-0.368-1.244-0.368-2.223v-5.16h2.293V23.383z"/>
	<path fill="#FFFFFF" d="M70.216,23.521c0.403,0.228,0.73,0.543,0.981,0.946v-4.084h2.27v11.561h-2.175v-1.186
		c-0.32,0.508-0.684,0.877-1.092,1.107c-0.408,0.229-0.917,0.345-1.523,0.345c-1,0-1.842-0.404-2.525-1.213
		s-1.024-1.847-1.024-3.114c0-1.46,0.336-2.609,1.009-3.447s1.572-1.257,2.697-1.257C69.352,23.179,69.813,23.293,70.216,23.521z
		 M70.766,29.619c0.33-0.472,0.494-1.081,0.494-1.83c0-1.047-0.264-1.796-0.793-2.246c-0.324-0.272-0.701-0.408-1.131-0.408
		c-0.654,0-1.135,0.247-1.441,0.742c-0.306,0.494-0.459,1.108-0.459,1.841c0,0.791,0.155,1.423,0.467,1.897
		c0.312,0.474,0.784,0.71,1.418,0.71S70.436,30.09,70.766,29.619z"/>
	<path fill="#FFFFFF" d="M82.641,30.896c-0.723,0.892-1.819,1.338-3.291,1.338c-1.471,0-2.568-0.446-3.29-1.338
		c-0.723-0.893-1.084-1.966-1.084-3.222c0-1.234,0.361-2.304,1.084-3.209c0.722-0.905,1.819-1.357,3.29-1.357
		c1.472,0,2.568,0.452,3.291,1.357s1.084,1.975,1.084,3.209C83.725,28.931,83.364,30.004,82.641,30.896z M80.85,29.659
		c0.351-0.466,0.526-1.127,0.526-1.984s-0.176-1.518-0.526-1.979c-0.351-0.463-0.854-0.694-1.508-0.694s-1.158,0.231-1.512,0.694
		c-0.354,0.462-0.53,1.122-0.53,1.979s0.177,1.519,0.53,1.984c0.354,0.465,0.857,0.698,1.512,0.698S80.5,30.124,80.85,29.659z"/>
	<path fill="#FFFFFF" d="M90.082,23.183c0.028,0.003,0.093,0.007,0.192,0.012v2.294c-0.142-0.017-0.267-0.026-0.377-0.032
		c-0.11-0.005-0.199-0.008-0.267-0.008c-0.901,0-1.506,0.294-1.814,0.88c-0.173,0.33-0.26,0.838-0.26,1.523v4.092h-2.254v-8.561
		h2.137v1.492c0.346-0.57,0.646-0.961,0.903-1.17c0.419-0.351,0.963-0.526,1.633-0.526C90.017,23.179,90.052,23.181,90.082,23.183z"
		/>
</g>
<g>
	<path fill="#FFFFFF" d="M242.467,249.071h2.513l-3.946,11.576h-2.285l-3.915-11.576h2.584l2.513,8.788L242.467,249.071z"/>
	<path fill="#FFFFFF" d="M250.939,252.261c0.597,0.268,1.09,0.689,1.479,1.267c0.351,0.508,0.578,1.098,0.683,1.77
		c0.06,0.394,0.085,0.959,0.073,1.698h-6.234c0.035,0.859,0.333,1.461,0.896,1.807c0.342,0.215,0.753,0.322,1.233,0.322
		c0.51,0,0.925-0.131,1.243-0.393c0.174-0.142,0.327-0.338,0.461-0.589h2.285c-0.061,0.508-0.337,1.023-0.83,1.547
		c-0.767,0.832-1.84,1.249-3.221,1.249c-1.139,0-2.145-0.352-3.015-1.054c-0.871-0.702-1.307-1.845-1.307-3.427
		c0-1.483,0.393-2.62,1.18-3.411c0.785-0.792,1.806-1.188,3.061-1.188C249.671,251.859,250.342,251.993,250.939,252.261z
		 M247.591,254.194c-0.316,0.326-0.516,0.768-0.597,1.325h3.856c-0.041-0.595-0.239-1.045-0.597-1.353
		c-0.356-0.309-0.799-0.462-1.327-0.462C248.353,253.705,247.907,253.868,247.591,254.194z"/>
	<path fill="#FFFFFF" d="M260.457,252.135c0.431,0.184,0.783,0.464,1.06,0.841c0.234,0.319,0.378,0.648,0.431,0.986
		c0.052,0.338,0.078,0.89,0.078,1.655v5.03h-2.285v-5.213c0-0.461-0.078-0.833-0.234-1.116c-0.202-0.398-0.587-0.598-1.153-0.598
		c-0.588,0-1.033,0.198-1.337,0.594c-0.305,0.396-0.456,0.96-0.456,1.694v4.639h-2.238V249.11h2.238v4.084
		c0.323-0.497,0.697-0.844,1.122-1.04s0.871-0.295,1.341-0.295C259.549,251.859,260.027,251.951,260.457,252.135z"/>
	<path fill="#FFFFFF" d="M268.018,248.585l-2.387,2.348h-1.618l1.508-2.348H268.018z M264.162,252.087h2.27v8.561h-2.27V252.087z"/>
	<path fill="#FFFFFF" d="M273.72,255.158c-0.042-0.319-0.149-0.607-0.323-0.864c-0.252-0.346-0.643-0.519-1.173-0.519
		c-0.756,0-1.272,0.375-1.551,1.123c-0.146,0.397-0.221,0.925-0.221,1.583c0,0.626,0.074,1.131,0.221,1.512
		c0.268,0.712,0.771,1.068,1.512,1.068c0.524,0,0.897-0.142,1.118-0.425c0.22-0.282,0.354-0.648,0.401-1.1h2.285
		c-0.053,0.681-0.299,1.325-0.739,1.933c-0.702,0.979-1.742,1.469-3.12,1.469c-1.379,0-2.393-0.409-3.043-1.226
		c-0.649-0.816-0.975-1.876-0.975-3.177c0-1.469,0.359-2.611,1.077-3.428s1.708-1.226,2.972-1.226c1.074,0,1.953,0.241,2.637,0.723
		c0.685,0.481,1.089,1.333,1.215,2.553L273.72,255.158L273.72,255.158z"/>
	<path fill="#FFFFFF" d="M279.774,252.087v5.16c0,0.486,0.058,0.854,0.173,1.1c0.203,0.435,0.602,0.651,1.195,0.651
		c0.761,0,1.281-0.309,1.562-0.927c0.146-0.335,0.219-0.777,0.219-1.327v-4.657h2.27v8.561h-2.175v-1.209
		c-0.021,0.025-0.073,0.104-0.157,0.235c-0.083,0.131-0.183,0.246-0.297,0.346c-0.35,0.313-0.688,0.528-1.015,0.644
		s-0.709,0.173-1.147,0.173c-1.263,0-2.114-0.455-2.553-1.366c-0.245-0.503-0.368-1.244-0.368-2.223v-5.16h2.293L279.774,252.087
		L279.774,252.087z"/>
	<path fill="#FFFFFF" d="M289.654,260.647h-2.238v-11.576h2.238V260.647z"/>
	<path fill="#FFFFFF" d="M298.977,259.601c-0.723,0.892-1.819,1.338-3.291,1.338c-1.471,0-2.568-0.446-3.29-1.338
		c-0.723-0.893-1.084-1.966-1.084-3.222c0-1.234,0.361-2.304,1.084-3.209c0.722-0.905,1.819-1.357,3.29-1.357
		c1.472,0,2.568,0.452,3.291,1.357s1.084,1.975,1.084,3.209C300.061,257.635,299.699,258.708,298.977,259.601z M297.186,258.363
		c0.351-0.466,0.526-1.127,0.526-1.984s-0.176-1.518-0.526-1.979c-0.351-0.463-0.854-0.694-1.508-0.694s-1.158,0.231-1.512,0.694
		c-0.354,0.462-0.53,1.122-0.53,1.979c0,0.857,0.177,1.519,0.53,1.984c0.354,0.465,0.857,0.698,1.512,0.698
		S296.835,258.828,297.186,258.363z"/>
	<path fill="#FFFFFF" d="M303.397,257.914c0.047,0.398,0.149,0.681,0.308,0.849c0.278,0.299,0.794,0.447,1.547,0.447
		c0.441,0,0.793-0.065,1.054-0.196c0.26-0.131,0.39-0.327,0.39-0.589c0-0.251-0.104-0.442-0.314-0.573s-0.99-0.355-2.341-0.676
		c-0.974-0.24-1.658-0.541-2.057-0.902c-0.397-0.356-0.597-0.869-0.597-1.54c0-0.79,0.311-1.47,0.933-2.037
		c0.622-0.568,1.497-0.853,2.625-0.853c1.07,0,1.942,0.213,2.616,0.64c0.675,0.427,1.062,1.164,1.161,2.211h-2.238
		c-0.031-0.288-0.112-0.516-0.244-0.683c-0.246-0.304-0.667-0.456-1.26-0.456c-0.488,0-0.836,0.076-1.043,0.228
		c-0.208,0.152-0.312,0.33-0.312,0.534c0,0.257,0.11,0.442,0.331,0.558c0.221,0.121,0.999,0.327,2.337,0.62
		c0.892,0.21,1.56,0.526,2.005,0.951c0.439,0.429,0.66,0.966,0.66,1.609c0,0.849-0.316,1.541-0.949,2.077
		c-0.632,0.537-1.608,0.806-2.931,0.806c-1.349,0-2.344-0.284-2.986-0.853s-0.964-1.292-0.964-2.172H303.397z"/>
</g>
<g>
	<g>
		<path fill="#969092" stroke="#FFFFFF" stroke-miterlimit="10" d="M154.683,142.652v126.006c1.56,0,3.121-0.35,4.305-1.049
			l101.391-59.914c1.183-0.699,2.259-1.896,3.039-3.262c0.781-1.369,1.266-2.906,1.266-4.281v-57.5L154.683,142.652"/>
		<g>
			<path fill="#969092" d="M199.637,222.382c0.25-0.438,0.595-0.821,0.974-1.045l32.478-19.192c0.379-0.224,0.879-0.336,1.379-0.336
				v40.363L199.637,222.382z"/>
		</g>
	</g>
	<g>
		<g>
			<path fill="#5E9BCD" stroke="#FFFFFF" stroke-miterlimit="10" d="M155.316,142.652V16.646c-1.56,0-3.121,0.35-4.305,1.049
				L49.621,77.608c-1.183,0.699-2.259,1.896-3.039,3.263c-0.781,1.368-1.266,2.905-1.266,4.281v57.5"/>
			<g>
				<path fill="#5E9BCD" d="M89.56,88.551c0.655,0,1.31-0.147,1.807-0.441l42.569-25.155c0.497-0.294,0.948-0.796,1.276-1.37
					L89.56,35.647V88.551z"/>
			</g>
		</g>
		<g>
			<path fill="#F9A23E" stroke="#FFFFFF" stroke-miterlimit="10" d="M155.316,142.652v126.006c-1.56,0-3.121-0.35-4.305-1.049
				l-101.39-59.914c-1.183-0.699-2.259-1.896-3.039-3.262c-0.781-1.369-1.266-2.906-1.266-4.281v-57.5L155.316,142.652"/>
			<g>
				<path fill="#F9A23E" d="M110.363,222.382c-0.25-0.438-0.595-0.821-0.974-1.045l-32.478-19.192
					c-0.379-0.224-0.879-0.336-1.379-0.336v40.363L110.363,222.382z"/>
			</g>
		</g>
		<g>
			<path fill="#889BA8" stroke="#FFFFFF" stroke-miterlimit="10" d="M154.683,142.652V16.646c1.56,0,3.121,0.35,4.305,1.049
				l101.391,59.913c1.183,0.699,2.259,1.896,3.039,3.263c0.781,1.368,1.266,2.905,1.266,4.281v57.5"/>
			<g>
				<path fill="#889BA8" d="M220.439,88.551c-0.655,0-1.31-0.147-1.807-0.441l-42.569-25.155c-0.497-0.294-0.948-0.796-1.276-1.37
					l45.652-25.939V88.551z"/>
			</g>
		</g>
		<g>
			
				<linearGradient id="SVGID_1_" gradientUnits="userSpaceOnUse" x1="567.004" y1="609.8757" x2="667.6302" y2="710.502" gradientTransform="matrix(1 0 0 1 -462 -517.538)">
				<stop  offset="0" style="stop-color:#E6E6E6"/>
				<stop  offset="0.2414" style="stop-color:#F4F4F4"/>
				<stop  offset="0.5334" style="stop-color:#FCFCFC"/>
				<stop  offset="1" style="stop-color:#FFFFFF"/>
			</linearGradient>
			<path fill="url(#SVGID_1_)" d="M155.316,216.657c-1.434,0-2.817-0.332-3.796-0.91l-57.39-33.914
				c-2.067-1.221-3.813-4.28-3.813-6.682v-65c0-2.4,1.747-5.461,3.813-6.683l57.391-33.913c0.979-0.579,2.362-0.911,3.796-0.911
				s2.817,0.332,3.796,0.911l57.391,33.913c2.067,1.222,3.813,4.282,3.813,6.683v65c0,2.401-1.746,5.461-3.813,6.682l-57.391,33.914
				C158.134,216.325,156.75,216.657,155.316,216.657z"/>
			<path fill="#FFFFFF" d="M155.316,69.646c1.26,0,2.458,0.281,3.287,0.771l57.391,33.913c1.77,1.046,3.322,3.766,3.322,5.822v65
				c0,2.055-1.552,4.776-3.322,5.821l-57.39,33.914c-0.829,0.49-2.028,0.771-3.288,0.771s-2.458-0.281-3.287-0.771l-57.391-33.914
				c-1.77-1.045-3.322-3.765-3.322-5.821v-65c0-2.056,1.552-4.776,3.322-5.822l57.39-33.913
				C152.858,69.927,154.057,69.646,155.316,69.646 M155.316,67.646c-1.56,0-3.121,0.35-4.305,1.049L93.62,102.608
				c-2.368,1.399-4.305,4.793-4.305,7.543v65c0,2.75,1.937,6.145,4.305,7.543l57.391,33.914c1.184,0.699,2.744,1.049,4.305,1.049
				s3.121-0.35,4.305-1.049l57.391-33.914c2.367-1.398,4.305-4.793,4.305-7.543v-65c0-2.75-1.938-6.145-4.305-7.543l-57.391-33.913
				C158.437,67.996,156.877,67.646,155.316,67.646L155.316,67.646z"/>
		</g>
	</g>
</g>
<g>
	<path fill="#485F79" d="M104.089,150.111c-0.874,0.9-2.139,1.351-3.793,1.351s-2.919-0.45-3.793-1.351
		c-1.173-1.105-1.76-2.697-1.76-4.775c0-2.12,0.587-3.712,1.76-4.775c0.874-0.9,2.139-1.351,3.793-1.351s2.919,0.45,3.793,1.351
		c1.168,1.063,1.752,2.655,1.752,4.775C105.841,147.414,105.257,149.005,104.089,150.111z M102.577,148.351
		c0.562-0.707,0.845-1.712,0.845-3.016c0-1.299-0.282-2.303-0.845-3.012c-0.562-0.71-1.323-1.064-2.281-1.064
		s-1.723,0.354-2.293,1.061c-0.571,0.707-0.856,1.712-0.856,3.016s0.285,2.309,0.856,3.016c0.57,0.707,1.335,1.061,2.293,1.061
		S102.014,149.058,102.577,148.351z"/>
	<path fill="#485F79" d="M116.319,140.796c0.354,0.492,0.532,1.081,0.532,1.767c0,0.707-0.18,1.275-0.536,1.704
		c-0.2,0.241-0.494,0.461-0.884,0.66c0.591,0.215,1.037,0.555,1.338,1.021c0.301,0.467,0.45,1.032,0.45,1.696
		c0,0.687-0.171,1.302-0.515,1.846c-0.219,0.361-0.492,0.665-0.82,0.911c-0.369,0.283-0.806,0.477-1.308,0.581
		c-0.503,0.104-1.048,0.157-1.636,0.157h-5.216v-11.576h5.594C114.731,139.585,115.731,139.995,116.319,140.796z M110.034,141.574
		v2.553h2.813c0.503,0,0.911-0.096,1.225-0.287s0.47-0.53,0.47-1.017c0-0.54-0.207-0.896-0.622-1.068
		c-0.357-0.12-0.813-0.181-1.367-0.181H110.034z M110.034,146.043v3.086h2.811c0.502,0,0.893-0.067,1.172-0.204
		c0.508-0.251,0.761-0.732,0.761-1.445c0-0.602-0.245-1.016-0.737-1.24c-0.274-0.126-0.66-0.191-1.156-0.196H110.034z"/>
	<path fill="#485F79" d="M119.302,139.563h2.418v9.495h5.78v2.081h-8.198V139.563z"/>
	<path fill="#485F79" d="M131.332,151.139h-2.403v-11.576h2.403V151.139z"/>
	<path fill="#485F79" d="M141.377,143.175c-0.184-0.79-0.631-1.343-1.343-1.656c-0.398-0.173-0.841-0.26-1.327-0.26
		c-0.932,0-1.698,0.352-2.297,1.055c-0.6,0.703-0.899,1.76-0.899,3.17c0,1.422,0.324,2.428,0.974,3.019
		c0.649,0.59,1.388,0.886,2.215,0.886c0.812,0,1.477-0.233,1.994-0.699c0.519-0.465,0.838-1.075,0.959-1.83h-2.679v-1.932h4.822
		v6.212h-1.603l-0.243-1.445c-0.466,0.548-0.885,0.934-1.257,1.157c-0.639,0.391-1.424,0.587-2.355,0.587
		c-1.534,0-2.791-0.531-3.77-1.594c-1.021-1.067-1.531-2.527-1.531-4.379c0-1.873,0.516-3.375,1.547-4.505
		c1.031-1.131,2.396-1.695,4.092-1.695c1.471,0,2.652,0.373,3.546,1.119c0.893,0.746,1.404,1.677,1.535,2.791H141.377z"/>
	<path fill="#485F79" d="M149.415,139.563h2.737l4.096,11.576h-2.623l-0.764-2.38h-4.264l-0.784,2.38h-2.53L149.415,139.563z
		 M149.256,146.765h2.965l-1.463-4.556L149.256,146.765z"/>
	<path fill="#485F79" d="M164.945,139.563v2.05h-3.463v9.526h-2.435v-9.526h-3.479v-2.05H164.945z"/>
	<path fill="#485F79" d="M174.99,150.111c-0.874,0.9-2.139,1.351-3.793,1.351s-2.919-0.45-3.793-1.351
		c-1.173-1.105-1.76-2.697-1.76-4.775c0-2.12,0.587-3.712,1.76-4.775c0.874-0.9,2.139-1.351,3.793-1.351s2.919,0.45,3.793,1.351
		c1.168,1.063,1.752,2.655,1.752,4.775C176.742,147.414,176.158,149.005,174.99,150.111z M173.478,148.351
		c0.562-0.707,0.845-1.712,0.845-3.016c0-1.299-0.282-2.303-0.845-3.012c-0.562-0.71-1.323-1.064-2.281-1.064
		s-1.723,0.354-2.293,1.061c-0.571,0.707-0.856,1.712-0.856,3.016s0.285,2.309,0.856,3.016c0.57,0.707,1.335,1.061,2.293,1.061
		S172.916,149.058,173.478,148.351z"/>
	<path fill="#485F79" d="M186.006,139.862c0.426,0.183,0.787,0.453,1.084,0.809c0.245,0.293,0.438,0.618,0.582,0.974
		c0.143,0.356,0.214,0.762,0.214,1.218c0,0.55-0.139,1.09-0.416,1.621c-0.277,0.532-0.735,0.907-1.374,1.127
		c0.534,0.215,0.912,0.521,1.135,0.915c0.223,0.396,0.333,0.999,0.333,1.811v0.777c0,0.529,0.021,0.888,0.064,1.076
		c0.063,0.299,0.213,0.519,0.446,0.659v0.291h-2.67c-0.073-0.257-0.126-0.463-0.157-0.62c-0.062-0.325-0.097-0.657-0.102-0.998
		l-0.017-1.075c-0.01-0.738-0.137-1.23-0.382-1.477s-0.705-0.369-1.378-0.369h-2.363v4.539h-2.363v-11.576h5.537
		C184.97,139.579,185.579,139.678,186.006,139.862z M181.006,141.574v3.11h2.604c0.518,0,0.905-0.063,1.164-0.188
		c0.457-0.221,0.686-0.655,0.686-1.304c0-0.702-0.221-1.173-0.664-1.414c-0.248-0.136-0.621-0.204-1.118-0.204H181.006z"/>
	<path fill="#485F79" d="M192.409,151.139h-2.403v-11.576h2.403V151.139z"/>
	<path fill="#485F79" d="M203.584,150.111c-0.874,0.9-2.139,1.351-3.793,1.351s-2.919-0.45-3.793-1.351
		c-1.173-1.105-1.76-2.697-1.76-4.775c0-2.12,0.587-3.712,1.76-4.775c0.874-0.9,2.139-1.351,3.793-1.351s2.919,0.45,3.793,1.351
		c1.168,1.063,1.752,2.655,1.752,4.775C205.336,147.414,204.752,149.005,203.584,150.111z M202.072,148.351
		c0.562-0.707,0.845-1.712,0.845-3.016c0-1.299-0.282-2.303-0.845-3.012c-0.562-0.71-1.323-1.064-2.281-1.064
		s-1.723,0.354-2.293,1.061c-0.571,0.707-0.856,1.712-0.856,3.016s0.285,2.309,0.856,3.016c0.57,0.707,1.335,1.061,2.293,1.061
		S201.51,149.058,202.072,148.351z"/>
	<path fill="#485F79" d="M208.925,147.566c0.075,0.528,0.222,0.924,0.44,1.186c0.401,0.477,1.088,0.715,2.062,0.715
		c0.582,0,1.056-0.062,1.419-0.188c0.689-0.24,1.034-0.688,1.034-1.343c0-0.382-0.169-0.678-0.507-0.888
		c-0.338-0.204-0.873-0.385-1.606-0.542l-1.254-0.274c-1.231-0.272-2.078-0.568-2.538-0.888c-0.78-0.534-1.17-1.369-1.17-2.505
		c0-1.037,0.381-1.898,1.145-2.584c0.763-0.686,1.884-1.029,3.362-1.029c1.235,0,2.289,0.323,3.16,0.971
		c0.872,0.646,1.329,1.585,1.372,2.815h-2.325c-0.043-0.696-0.354-1.191-0.934-1.484c-0.387-0.194-0.867-0.291-1.441-0.291
		c-0.639,0-1.148,0.126-1.529,0.377s-0.572,0.603-0.572,1.053c0,0.413,0.188,0.723,0.564,0.927c0.241,0.136,0.754,0.296,1.537,0.479
		l2.032,0.479c0.89,0.209,1.558,0.489,2.002,0.84c0.689,0.545,1.035,1.333,1.035,2.364c0,1.058-0.409,1.936-1.227,2.635
		s-1.973,1.049-3.465,1.049c-1.524,0-2.723-0.345-3.596-1.033c-0.874-0.688-1.31-1.635-1.31-2.839H208.925z"/>
</g>
</svg>
